<?xml version="1.0" encoding="iso-8859-1"?>
<!-- Generator: Adobe Illustrator 18.0.0, SVG Export Plug-In . SVG Version: 6.00 Build 0)  -->
<!DOCTYPE svg PUBLIC "-//W3C//DTD SVG 1.1//EN" "http://www.w3.org/Graphics/SVG/1.1/DTD/svg11.dtd">
<svg version="1.1" id="Capa_1" xmlns="http://www.w3.org/2000/svg" xmlns:xlink="http://www.w3.org/1999/xlink" x="0px" y="0px"
	 viewBox="0 0 189.081 189.081" style="enable-background:new 0 0 189.081 189.081;" xml:space="preserve">
<g>
	<path d="M99.637,2.834C98.542,1.072,96.615,0,94.541,0s-4.002,1.072-5.097,2.834c-2.323,3.741-56.903,91.979-56.903,124.247
		c0,34.187,27.813,62,62,62s62-27.813,62-62C156.541,94.813,101.96,6.575,99.637,2.834z M94.541,177.081c-27.57,0-50-22.43-50-50
		c0-21.632,32.423-80.213,50-109.548c17.577,29.335,50,87.917,50,109.548C144.541,154.651,122.111,177.081,94.541,177.081z"/>
	<path d="M99.564,53.5c-1.108-1.696-2.997-2.719-5.023-2.719s-3.915,1.022-5.023,2.719c-3.639,5.57-35.549,54.979-35.549,74.361
		c0,21.436,18.2,38.875,40.572,38.875s40.572-17.439,40.572-38.875C135.113,108.479,103.203,59.07,99.564,53.5z M113.157,148.223
		c0.251-1.231,0.383-2.506,0.383-3.811c0-10.494-19-41.081-19-41.081s-19,30.588-19,41.081c0,1.305,0.133,2.58,0.383,3.811
		c-6.089-4.932-9.956-12.228-9.956-20.361c0-10.469,15.902-39.517,28.572-59.905c12.671,20.384,28.572,49.43,28.572,59.905
		C123.113,135.995,119.246,143.29,113.157,148.223z"/>
</g>
<g>
</g>
<g>
</g>
<g>
</g>
<g>
</g>
<g>
</g>
<g>
</g>
<g>
</g>
<g>
</g>
<g>
</g>
<g>
</g>
<g>
</g>
<g>
</g>
<g>
</g>
<g>
</g>
<g>
</g>
</svg>
